<?xml version="1.0" standalone="no"?>
<!DOCTYPE svg PUBLIC "-//W3C//DTD SVG 1.1//EN" "http://www.w3.org/Graphics/SVG/1.1/DTD/svg11.dtd" >
<svg xmlns="http://www.w3.org/2000/svg">
<metadata>Generated by IcoMoon</metadata>
<defs>
<font id="icomoon" horiz-adv-x="1024">
<font-face units-per-em="1024" ascent="960" descent="-64" />
<missing-glyph horiz-adv-x="1024" />
<glyph unicode="&#x20;" d="" horiz-adv-x="512" />
<glyph unicode="&#xe600;" d="M64 768h896v-192h-896zM64 512h896v-192h-896zM64 256h896v-192h-896z" />
<glyph unicode="&#xe601;" d="M512 960c-282.77 0-512-229.23-512-512s229.23-512 512-512 512 229.23 512 512-229.23 512-512 512zM768 613.49l-165.488-165.49 165.488-165.488v-90.512h-90.512l-165.488 165.488-165.49-165.488h-90.51v90.512l165.49 165.488-165.49 165.49v90.51h90.51l165.49-165.49 165.488 165.49h90.512v-90.51z" />
<glyph unicode="&#xe602;" d="M358.286 713.143q0-7.429-5.714-13.143l-224.571-224.571 224.571-224.571q5.714-5.714 5.714-13.143t-5.714-13.143l-28.571-28.571q-5.714-5.714-13.143-5.714t-13.143 5.714l-266.286 266.286q-5.714 5.714-5.714 13.143t5.714 13.143l266.286 266.286q5.714 5.714 13.143 5.714t13.143-5.714l28.571-28.571q5.714-5.714 5.714-13.143z" horiz-adv-x="366" />
<glyph unicode="&#xe603;" d="M340 475.429q0-7.429-5.714-13.143l-266.286-266.286q-5.714-5.714-13.143-5.714t-13.143 5.714l-28.571 28.571q-5.714 5.714-5.714 13.143t5.714 13.143l224.571 224.571-224.571 224.571q-5.714 5.714-5.714 13.143t5.714 13.143l28.571 28.571q5.714 5.714 13.143 5.714t13.143-5.714l266.286-266.286q5.714-5.714 5.714-13.143z" horiz-adv-x="366" />
<glyph unicode="&#xe604;" d="M614.286 347.429q0-7.429-5.714-13.143l-28.571-28.571q-5.714-5.714-13.143-5.714t-13.143 5.714l-224.571 224.571-224.571-224.571q-5.714-5.714-13.143-5.714t-13.143 5.714l-28.571 28.571q-5.714 5.714-5.714 13.143t5.714 13.143l266.286 266.286q5.714 5.714 13.143 5.714t13.143-5.714l266.286-266.286q5.714-5.714 5.714-13.143z" horiz-adv-x="658" />
<glyph unicode="&#xe605;" d="M614.286 603.429q0-7.429-5.714-13.143l-266.286-266.286q-5.714-5.714-13.143-5.714t-13.143 5.714l-266.286 266.286q-5.714 5.714-5.714 13.143t5.714 13.143l28.571 28.571q5.714 5.714 13.143 5.714t13.143-5.714l224.571-224.571 224.571 224.571q5.714 5.714 13.143 5.714t13.143-5.714l28.571-28.571q5.714-5.714 5.714-13.143z" horiz-adv-x="658" />
<glyph unicode="&#xe606;" d="M1348.451 956.835l-413.082-955.944-240.569 574.516 161.434 381.428h-26.906l-147.19-351.357-148.773 351.357h-25.323l158.269-381.428-243.734-574.516-395.672 955.944h-26.906l422.578-1019.252 257.978 606.17 254.813-606.17 439.988 1019.252zM1552.618 953.669h25.323v-1016.087h-25.323v1016.087zM2573.453 960v-954.362l-792.927 951.196v-1020.835h25.323v951.196l791.345-951.196v1024zM3521.484 960l-694.801-606.17v604.587h-25.323v-1020.835h25.323v383.011h1.583l231.073 202.584 441.57-587.178h30.071l-452.649 603.005 481.138 420.995z" horiz-adv-x="3559" />
<glyph unicode="&#xe607;" d="M0-64h1024v1024h-1024v-1024zM896 64h-256v256c0 71.111-56.889 128-128 128s-128-56.889-128-128v-256h-256v768h768v-768zM512 704c71.111 0 128-56.889 128-128s-56.889-128-128-128c-71.111 0-128 56.889-128 128s56.889 128 128 128" />
<glyph unicode="&#xe608;" d="M464.858 393.863v-352.033h-325.060v277.918c0 150.481 17.966 259.378 53.897 326.737 47.142 89.877 121.832 157.763 224.021 203.803l74.115-117.903c-61.754-25.823-107.268-64.246-136.444-115.364-29.176-51.119-45.465-125.473-48.867-223.159h158.338zM987.015 393.863v-352.033h-325.060v277.918c0 150.481 17.966 259.378 53.897 326.737 47.142 89.829 121.832 157.715 224.021 203.803l74.115-117.903c-61.754-25.871-107.22-64.293-136.444-115.364-29.176-51.119-45.465-125.473-48.867-223.159h158.338z" horiz-adv-x="1116" />
<glyph unicode="&#xe609;" d="M4.129 493.419h1015.742v-41.29h-1015.742v41.29zM507.871 955.871h41.29v-1015.742h-41.29v1015.742z" />
<glyph unicode="&#xe60a;" d="M94.002 901.092c-88.989-90.242-94.002-204.299-94.002-204.299 22.561-110.296 146.644-313.342 297.048-463.745 150.404-150.404 353.449-274.487 463.745-297.048 0 0 114.056 5.013 204.299 94.002v0l53.895 52.641c7.52 7.52 7.52 18.8 0 26.321l-225.606 225.606c-7.52 7.52-18.8 7.52-25.067 0l-53.895-53.895-50.135-61.415c0 0-95.256 20.054-228.113 154.164-132.857 131.603-152.911 226.859-152.911 226.859l62.668 50.135 52.641 52.641c7.52 7.52 7.52 18.8 0 25.067l-225.606 225.606c-7.52 7.52-18.8 7.52-25.067 0l-53.895-52.641z" />
<glyph unicode="&#xe60b;" d="M4.129 493.419h1015.742v-41.29h-1015.742v41.29z" />
<glyph unicode="&#xe60c;" d="M1358.090-64h-1358.090v1024h1358.090v-1024zM160.255 31.066h1036.223l-340.881 349.029-65.188-65.188c-28.52-28.52-67.905-43.459-110.005-43.459 0 0 0 0-1.358 0-42.101 0-82.843 16.297-110.005 44.817l-65.188 66.546-343.597-351.745zM95.066 797.029v-699.416l343.597 350.387-343.597 349.029zM923.501 446.642l339.523-347.671v689.91l-339.523-342.239zM160.255 864.934l478.048-483.48c10.865-10.865 25.804-16.297 43.459-16.297v0c16.297 0 32.594 5.432 43.459 16.297l479.406 483.48h-1044.371z" horiz-adv-x="1358" />
<glyph unicode="&#xe60d;" d="M512 960c-283.167 0-512-228.833-512-512s228.833-512 512-512c283.167 0 512 228.833 512 512 0 283.167-228.833 512-512 512M512 95.869c-43.886 0-78.367 35.527-78.367 78.367s35.527 78.367 78.367 78.367 78.367-35.527 78.367-78.367-34.482-78.367-78.367-78.367M590.367 392.62c0-43.886-35.527-78.367-78.367-78.367s-78.367 35.527-78.367 78.367v329.143c0 43.886 35.527 78.367 78.367 78.367s78.367-35.527 78.367-78.367v-329.143z" />
<glyph unicode="&#xe60e;" d="M559.563-64c43.646 43.646 296.568 296.568 453.246 453.246 141.010 141.010 137.652 346.929 10.072 474.509-128.699 128.699-335.738 127.58-463.318 0-127.58 127.58-334.619 128.699-463.318 1.119-128.699-127.58-130.938-333.499 10.072-474.509 156.678-157.797 409.6-409.6 453.246-454.365" horiz-adv-x="1119" />
<glyph unicode="&#xe60f;" d="M1.043 452.68c-15.859 258.813 250.811 516.535 520.875 507.077 242.396-8.487 503.779-218.438 496.699-518.135-3.395-143.92-53.567-267.688-164.338-367.886-102.793-92.996-217.783-133.517-355.616-137.542-244.53-7.178-517.65 241.79-497.62 516.486zM508.702 60.569c109.995-15.059 192.637 34.749 269.604 107.497 81.041 76.579 116.833 167.66 120.543 277.364 7.178 212.642-185.75 396.355-386.995 390.584-105.412-3.031-194.067-33.804-269.725-109.898-77.477-77.889-122.12-162.422-122.58-277.315-0.461-114.869 41.757-200.978 120.495-278.043 75.415-73.815 157.984-124.835 268.658-110.189zM458.894 392.978c-50.802 17.557-113.172-20.563-143.362 51.384 18.041 75.585 84.533 43.358 137.106 53.591 31.451 39.914-25.074 114.82 56.501 143.313 73.839-17.508 43.406-83.248 50.463-135.942 41.927-30.433 115.33 21.849 145.229-55.167-17.969-75.779-83.709-45.37-136.402-52.403-30.433-41.927 21.849-115.33-55.531-145.375-75.173 18.235-43.552 84.485-54.003 140.598z" horiz-adv-x="1019" />
<glyph unicode="&#xe610;" d="M1023.976 441.824c-2.729-280.247-233.811-507.213-515.009-505.824-285.363 1.413-514.473 237.466-508.869 524.267 5.482 279.321 239.61 503.778 521.221 499.685 279.711-4.093 505.385-236.686 502.657-518.127zM902.989 443.578c1.778 220.387-170.029 394.802-389.54 395.435-214.662 0.609-388.078-167.617-392.244-380.525-4.337-221.021 165.108-398.432 383.424-401.429 220.461-3.045 396.58 167.837 398.359 386.519zM502.827 406.644c-40.15 0-80.325-0.633-120.451 0.195-31.891 0.658-71.237-2.046-70.336 43.732 0.731 36.569 34.693 38.567 63.319 38.713 84.32 0.439 168.64 0.171 252.961 0.073 29.138-0.024 63.076-3.508 64.489-37.909 1.827-44.365-37.154-44.146-69.532-44.657-40.15-0.609-80.3-0.146-120.451-0.146z" />
<glyph unicode="&#xe611;" d="M625.387 698.014c0 0-519.747 83.103-543.692 78.878-23.945-4.226-53.524-18.311-69.018-39.439-16.902-21.128-16.902-25.354 0-30.988 15.494-5.634 484.534-209.871 484.534-209.871l-166.206-260.578h-136.627c0 0-40.847 4.226-53.524-15.494-12.677-19.719-39.439-53.524-39.439-53.524s-19.719-18.311 12.677-23.945c32.396-5.634 178.883-22.536 178.883-22.536l-25.354-43.664c0 0-16.902-26.762-4.226-32.396 12.677-5.634 30.988-4.226 40.847 12.677 9.86 16.902 29.579 35.213 29.579 35.213l73.243-146.487c0 0 11.268-21.128 32.396 0 21.128 21.128 28.171 33.805 28.171 33.805s19.719 28.171 5.634 61.975c-14.085 33.805-46.481 135.219-46.481 135.219s402.839 454.955 478.9 622.57c76.061 167.615-2.817 200.011-104.231 114.091-102.823-84.512-176.066-215.505-176.066-215.505M664.825 375.461l140.853 176.066c0 0 202.828-388.754 216.913-414.107 15.494-25.354 9.86-64.792 0-88.737-9.86-22.536-23.945-61.975-59.158-16.902-35.213 47.89-298.608 343.681-298.608 343.681" horiz-adv-x="1032" />
<glyph unicode="&#xe612;" d="M876.009 738.014v107.413l-130.089 114.573v-221.986h-347.301v221.986l-131.282-114.573v-107.413h-267.338v-513.193c0-11.935 1.193-25.063 3.58-38.191-2.387 9.548-3.58 21.483-3.58 33.417v-118.154c0-93.091 72.802-165.893 167.086-165.893h818.723c93.091 0 165.893 72.802 165.893 165.893v636.121h-275.692zM679.086 211.692c-65.641-50.126-83.543-83.543-103.832-105.026-21.483 20.289-39.385 53.706-105.026 105.026-63.254 50.126-146.797 115.767-146.797 207.664 0 136.056 167.086 188.569 250.629 63.254 83.543 125.315 250.629 72.802 250.629-62.061 1.193-91.897-81.156-159.925-145.604-208.858M414.135 960h317.464v-102.639h-317.464v102.639z" horiz-adv-x="1149" />
</font>
</defs>
</svg>
